<svg xmlns="http://www.w3.org/2000/svg">
  <symbol id="chart-bar" viewBox="0 0 256 256"><path d="M224,200h-8V40a8,8,0,0,0-8-8H152a8,8,0,0,0-8,8V80H96a8,8,0,0,0-8,8v40H48a8,8,0,0,0-8,8v64H32a8,8,0,0,0,0,16H224a8,8,0,0,0,0-16ZM160,48h40V200H160ZM104,96h40V200H104ZM56,144H88v56H56Z"/></symbol>
  <symbol id="lightning" viewBox="0 0 256 256"><path d="M215.79,118.17a8,8,0,0,0-5-5.66L153.18,90.9l14.66-73.33a8,8,0,0,0-13.69-7l-112,120a8,8,0,0,0,3,13l57.63,21.61L88.16,238.43a8,8,0,0,0,13.69,7l112-120A8,8,0,0,0,215.79,118.17ZM109.37,214l10.47-52.38a8,8,0,0,0-5-9.06L62,132.71l84.62-90.66L136.16,94.43a8,8,0,0,0,5,9.06l52.8,19.8Z"/></symbol>
  <symbol id="heart" viewBox="0 0 256 256"><path d="M178,40c-20.65,0-38.73,8.88-50,23.89C116.73,48.88,98.65,40,78,40a62.07,62.07,0,0,0-62,62c0,70,103.79,126.66,108.21,129a8,8,0,0,0,7.58,0C136.21,228.66,240,172,240,102A62.07,62.07,0,0,0,178,40ZM128,214.8C109.74,204.16,32,155.69,32,102A46.06,46.06,0,0,1,78,56c19.45,0,35.78,10.36,42.6,27a8,8,0,0,0,14.8,0c6.82-16.67,23.15-27,42.6-27a46.06,46.06,0,0,1,46,46C224,155.61,146.24,204.15,128,214.8Z"/></symbol>
  <symbol id="hard-drive" viewBox="0 0 256 256"><path d="M224,64H32A16,16,0,0,0,16,80v96a16,16,0,0,0,16,16H224a16,16,0,0,0,16-16V80A16,16,0,0,0,224,64Zm0,112H32V80H224v96Zm-24-48a12,12,0,1,1-12-12A12,12,0,0,1,200,128Z"/></symbol>
  <symbol id="database" viewBox="0 0 256 256"><path d="M128,24C74.17,24,32,48.6,32,80v96c0,31.4,42.17,56,96,56s96-24.6,96-56V80C224,48.6,181.83,24,128,24Zm80,104c0,9.62-7.88,19.43-21.61,26.92C170.93,163.35,150.19,168,128,168s-42.93-4.65-58.39-13.08C55.88,147.43,48,137.62,48,128V111.36c17.06,15,46.23,24.64,80,24.64s62.94-9.68,80-24.64ZM69.61,53.08C85.07,44.65,105.81,40,128,40s42.93,4.65,58.39,13.08C200.12,60.57,208,70.38,208,80s-7.88,19.43-21.61,26.92C170.93,115.35,150.19,120,128,120s-42.93-4.65-58.39-13.08C55.88,99.43,48,89.62,48,80S55.88,60.57,69.61,53.08ZM186.39,202.92C170.93,211.35,150.19,216,128,216s-42.93-4.65-58.39-13.08C55.88,195.43,48,185.62,48,176V159.36c17.06,15,46.23,24.64,80,24.64s62.94-9.68,80-24.64V176C208,185.62,200.12,195.43,186.39,202.92Z"/></symbol>
  <symbol id="desktop" viewBox="0 0 256 256"><path d="M208,40H48A24,24,0,0,0,24,64V176a24,24,0,0,0,24,24h72v16H96a8,8,0,0,0,0,16h64a8,8,0,0,0,0-16H136V200h72a24,24,0,0,0,24-24V64A24,24,0,0,0,208,40ZM48,56H208a8,8,0,0,1,8,8v80H40V64A8,8,0,0,1,48,56ZM208,184H48a8,8,0,0,1-8-8V160H216v16A8,8,0,0,1,208,184Z"/></symbol>
  <symbol id="list-bullets" viewBox="0 0 256 256"><path d="M80,64a8,8,0,0,1,8-8H216a8,8,0,0,1,0,16H88A8,8,0,0,1,80,64Zm136,56H88a8,8,0,0,0,0,16H216a8,8,0,0,0,0-16Zm0,64H88a8,8,0,0,0,0,16H216a8,8,0,0,0,0-16ZM44,52A12,12,0,1,0,56,64,12,12,0,0,0,44,52Zm0,64a12,12,0,1,0,12,12A12,12,0,0,0,44,116Zm0,64a12,12,0,1,0,12,12A12,12,0,0,0,44,180Z"/></symbol>
  <symbol id="arrows-clockwise" viewBox="0 0 256 256"><path d="M224,48V96a8,8,0,0,1-8,8H168a8,8,0,0,1,0-16h28.69L182.06,73.37a79.56,79.56,0,0,0-56.13-23.43h-.45A79.52,79.52,0,0,0,69.59,72.71,8,8,0,0,1,58.41,61.27a96,96,0,0,1,135,.79L208,76.69V48a8,8,0,0,1,16,0ZM186.41,183.29a80,80,0,0,1-112.47-.66L59.31,168H88a8,8,0,0,0,0-16H40a8,8,0,0,0-8,8v48a8,8,0,0,0,16,0V179.31l14.63,14.63A95.43,95.43,0,0,0,130,222.06h.53a95.36,95.36,0,0,0,67.07-27.33,8,8,0,0,0-11.18-11.44Z"/></symbol>
  <symbol id="trash" viewBox="0 0 256 256"><path d="M216,48H176V40a24,24,0,0,0-24-24H104A24,24,0,0,0,80,40v8H40a8,8,0,0,0,0,16h8V208a16,16,0,0,0,16,16H192a16,16,0,0,0,16-16V64h8a8,8,0,0,0,0-16ZM96,40a8,8,0,0,1,8-8h48a8,8,0,0,1,8,8v8H96Zm96,168H64V64H192ZM112,104v64a8,8,0,0,1-16,0V104a8,8,0,0,1,16,0Zm48,0v64a8,8,0,0,1-16,0V104a8,8,0,0,1,16,0Z"/></symbol>
  <symbol id="download-simple" viewBox="0 0 256 256"><path d="M224,144v64a8,8,0,0,1-8,8H40a8,8,0,0,1-8-8V144a8,8,0,0,1,16,0v56H208V144a8,8,0,0,1,16,0Zm-101.66,5.66a8,8,0,0,0,11.32,0l40-40a8,8,0,0,0-11.32-11.32L136,124.69V32a8,8,0,0,0-16,0v92.69L93.66,98.34a8,8,0,0,0-11.32,11.32Z"/></symbol>
  <symbol id="wrench" viewBox="0 0 256 256"><path d="M226.76,69a8,8,0,0,0-12.84-2.88l-40.3,37.19-17.23-3.7-3.7-17.23,37.19-40.3A8,8,0,0,0,187,29.24,72,72,0,0,0,88,96,72.34,72.34,0,0,0,94,124.94L33.79,177c-.15.12-.29.26-.43.39a32,32,0,0,0,45.26,45.26c.13-.13.27-.28.39-.42L131.06,162A72,72,0,0,0,232,96,71.56,71.56,0,0,0,226.76,69ZM160,152a56.14,56.14,0,0,1-27.07-7,8,8,0,0,0-9.92,1.77L67.11,211.51a16,16,0,0,1-22.62-22.62L109.18,133a8,8,0,0,0,1.77-9.93,56,56,0,0,1,58.36-82.31l-31.2,33.81a8,8,0,0,0-1.94,7.1L141.83,108a8,8,0,0,0,6.14,6.14l26.35,5.66a8,8,0,0,0,7.1-1.94l33.81-31.2A56.06,56.06,0,0,1,160,152Z"/></symbol>
  <symbol id="arrow-left" viewBox="0 0 256 256"><path d="M224,128a8,8,0,0,1-8,8H59.31l58.35,58.34a8,8,0,0,1-11.32,11.32l-72-72a8,8,0,0,1,0-11.32l72-72a8,8,0,0,1,11.32,11.32L59.31,120H216A8,8,0,0,1,224,128Z"/></symbol>
</svg>
